PathFileType	4	(X/Y/Z)	1_2_rein_56_p0_0-536.trc
DataRate	CameraRate	NumFrames	NumMarkers	Units	OrigDataRate	OrigDataStartFrame	OrigNumFrames
59.0	59.0	6	27	m	59.0	335	537
Frame#	Time	RHip			RKnee			RAnkle			RBigToe			RSmallToe			RHeel			LHip			LKnee			LAnkle			LBigToe			LSmallToe			LHeel			Neck			Head			Nose			RShoulder			RElbow			RWrist			RThumb			RIndex			RPinky			LShoulder			LElbow			LWrist			LThumb			LIndex			LPinky			
		X1	Y1	Z1	X2	Y2	Z2	X3	Y3	Z3	X4	Y4	Z4	X5	Y5	Z5	X6	Y6	Z6	X7	Y7	Z7	X8	Y8	Z8	X9	Y9	Z9	X10	Y10	Z10	X11	Y11	Z11	X12	Y12	Z12	X13	Y13	Z13	X14	Y14	Z14	X15	Y15	Z15	X16	Y16	Z16	X17	Y17	Z17	X18	Y18	Z18	X19	Y19	Z19	X20	Y20	Z20	X21	Y21	Z21	X22	Y22	Z22	X23	Y23	Z23	X24	Y24	Z24	X25	Y25	Z25	X26	Y26	Z26	X27	Y27	Z27	
335	5.677966101694915	0.4050810596869424	0.19689018338995234	1.0688089092947999	0.3997210033155491	0.28003530545759503	1.5464977903549837	0.37812649668621173	0.3814561634888818	1.9581190815596485	0.3519360439605583	0.19830592140660724	2.0150653509501675	0.42388924000486555	0.2720827827562598	2.0407372319075483	0.34555257117134425	0.45224679602028556	2.033272968183344	0.18930191583093414	0.18019568489319943	1.0712454537741034	0.18679592539922632	0.2621427683207886	1.5211978093538872	0.2080467203548746	0.42529365094915594	1.9674614284571679	0.18893774232892233	0.19245728099888657	2.020881676861327	0.13277604823196254	0.23791600945149885	1.9865795699923603	0.21259496827124344	0.473006204093475	2.05131239567115	0.2849502653215279	0.11036714164315271	0.40668549563009765	0.29276861631812423	0.04660110545557614	0.16736751326169824	0.3034145187764278	0.01629898676724115	0.29259231267645114	0.46002836492403476	0.16360263097947952	0.5270145148412361	0.5452506292995993	0.22692224130986427	0.8024774989082645	0.581853777797575	0.16455128991098447	1.082882156321954	0.5629785740225738	0.07897364149236893	1.1830657634415747	0.574603561969201	0.08948467901765102	1.2056947444617896	0.5692905732912974	0.16708793797248034	1.2243904020530625	0.10063578482179242	0.08203413923306638	0.4743550998282777	-0.17549202983082124	0.005464971737400281	0.4946642521878073	-0.007676671838539813	-0.12370753750153309	0.39027306539236756	0.07796681218591837	-0.1350529670837903	0.3983269376141813	0.07943630265608194	-0.17884702081367754	0.38163983774880744	0.030163602935273294	-0.188578108539072	0.36804890512627975
336	5.694915254237288	0.40055808428095097	0.19496739056304915	1.0686653654620424	0.40024269381280914	0.27859992968406	1.5499741253879091	0.3787212128512053	0.3792712976655362	1.9609999281392438	0.3518960854885465	0.1982826593300702	2.0152206150149325	0.43146629162322253	0.2679331284408607	2.037620254258626	0.3457140778830684	0.45256690345363054	2.0323657141723865	0.1894180799334664	0.17897748454548298	1.0743377823440825	0.19529694121737437	0.27732166885229464	1.535028799841505	0.20454242740861833	0.4432667117387689	1.9811931278355834	0.18903234472882702	0.19215418357311456	2.0209111550333367	0.13375702401516457	0.23994421604304025	1.9920421223587277	0.21226235325382606	0.4731842777670259	2.0493803248331663	0.2849599493960463	0.1105084405053411	0.4068523251780799	0.28934678219661575	0.05786776164691089	0.16707983614764263	0.3067457803226633	0.0056762924757777534	0.2926000416401666	0.4563417354061908	0.16135757486731953	0.5270545585192286	0.5451637965792507	0.22689744768102862	0.8023703113473144	0.5817003679844631	0.1642405346368209	1.0828552987753124	0.5633785601543821	0.07951395413476714	1.1838710281141522	0.5789571651261565	0.09571053402478562	1.2157046794175947	0.5622426484144115	0.17273676980670827	1.2269452659926452	0.10447911267853921	0.09098213470544635	0.47783394529803663	-0.17367696499523758	0.015508595963877055	0.4980241177351943	-0.012024336259949784	-0.11459200539614879	0.3905666793401666	0.07697886454761814	-0.1314387535203098	0.3883363577483841	0.07596054414165912	-0.15916653149616017	0.37788057151902443	0.02602683892134749	-0.17998216526679686	0.35686812663975426
337	5.711864406779661	0.3965360325998063	0.2067864761447874	1.0684095538527991	0.4002538059678736	0.27852684179188225	1.5500820700253182	0.37870996930578793	0.3791563187918659	1.9611131307717025	0.35239813391637204	0.19611106948078827	2.0186063847237805	0.42765780350619603	0.2565985248776961	2.0320495045443905	0.34564352399348885	0.45192977436126747	2.0330613102989483	0.18943099784895276	0.17918367364582646	1.0742129226247317	0.19547068376251422	0.2776176836951358	1.535095474342104	0.203574374105036	0.44102958599380176	1.9758942157013935	0.18895410352718894	0.19199238572771704	2.020913007073696	0.13376931919256468	0.24034547232672715	1.9924707862009872	0.21277089629451895	0.4748119323834659	2.045999034099973	0.28498874920995615	0.11031551211992317	0.4069507203524694	0.28923304346402473	0.05654451557062075	0.16418622094679708	0.3067057422566798	0.005553835687999027	0.29254167325967806	0.4558146075661282	0.16313258553891008	0.5238253257224117	0.5451913717190882	0.2269232423791153	0.8023670683328619	0.5816040985730399	0.1641661955904953	1.0828546860891193	0.5634101074668861	0.07942591549560996	1.1838659632283741	0.5790541332028953	0.09567131138422699	1.2158601876028678	0.5622746546704661	0.17306160246520952	1.2269556453999888	0.10449049354148171	0.09097323403976648	0.47785513250595835	-0.17349469652789404	0.015236246679873774	0.49818020451952716	-0.012120573865241594	-0.12413893769637314	0.3875804806793097	0.07491290878728654	-0.14120651204432197	0.3858207817763434	0.07363214821981161	-0.16806472021911506	0.3713346988729351	0.024823853001917442	-0.18872890484321608	0.3516435549088824
338	5.728813559322034	0.39995462255472375	0.19323802559006553	1.0644626810246642	0.4002136632319995	0.278353672234199	1.5498460670908485	0.3785878242781057	0.3794733318106121	1.9609956667911235	0.3519120523599897	0.19844721989420258	2.0153110957599187	0.4277833134799408	0.28365532547685857	2.0468040712430953	0.3444535241302265	0.45046565543158523	2.026941356697012	0.18921811627861826	0.1803535598985291	1.0712011805143806	0.19428186223243876	0.2772506206528022	1.5267220004758235	0.20307901460707384	0.44337041434758895	1.9719582773399786	0.18931527382904983	0.1925799356875383	2.0208837475070007	0.1337936208251352	0.24041096536029488	1.9923586405274234	0.21358328893853212	0.4879403971234852	2.043623096215848	0.28499229143907984	0.11043702204515067	0.4069665032780738	0.2891868869547777	0.05649475242021463	0.1641470536273177	0.3033000974172149	0.016195416283074575	0.29261105519699837	0.455828956703016	0.1632141907628431	0.5238292353389115	0.5452186893786563	0.22690301804929186	0.8023537139163667	0.5815818322926005	0.16432427245010042	1.0829050001169278	0.5633614168701774	0.0795301789560165	1.1839064229148268	0.5790814369005304	0.09596608187797225	1.2161002558890643	0.5602338667077	0.18653433726620755	1.2355817708022863	0.10473482240609898	0.09234993666427292	0.481056815458299	-0.16989846013653348	0.017066315125574733	0.5016031921666272	-0.0085842066811866	-0.12240067346695639	0.38765562155768585	0.07683663590911188	-0.133059422974522	0.38545323186266844	0.07556771761517653	-0.1591574291203959	0.3642425382015367	0.025660728037692083	-0.19065345959142094	0.35231184969434093
339	5.745762711864407	0.39652092831996294	0.20659841670497098	1.0681113723027928	0.39979552234005716	0.28009487312830994	1.5466447463378654	0.37792274865099945	0.38042676663436936	1.9613514301826909	0.3519229128293798	0.1985592439904259	2.0152032458243907	0.4277717241864536	0.28378603851660394	2.0466416135668517	0.3485847805668545	0.4634125639884012	2.033007003188309	0.1893488910842516	0.1789026819482595	1.0740407185958505	0.19420839664956413	0.27672284969591343	1.5261202702861816	0.20313874199780582	0.44328381057202604	1.9723445742085945	0.18931799401128543	0.1927573773689142	2.0209227466984636	0.13381187442091017	0.24044954977974584	1.9924327413144758	0.21026917574941822	0.4773645856896102	2.0328429226493285	0.2849930018638185	0.11051853881464915	0.40694748628079724	0.2892477706839687	0.057799482991163956	0.16709757201050787	0.30320619163609874	0.016232121800553848	0.29261227773001125	0.46057990507645175	0.16178380697593853	0.5302235829269587	0.5452385889202863	0.22697488406693597	0.8023897658572661	0.58162233987771	0.16443222556943346	1.0829562790130776	0.5633029872770934	0.07968746422866471	1.1840523810571257	0.5799182451364192	0.09614662977902982	1.2236829623537766	0.5599708724811633	0.18760964470016722	1.2357637340158651	0.10771784766612674	0.10233100299682735	0.4810932137578214	-0.16981406080318598	0.01836818882390262	0.5052510782612891	-0.011971675593085174	-0.11442924553869777	0.39074198509111435	0.07475317804912363	-0.14158707415125976	0.3891339539366789	0.07229056693334202	-0.1494939696424267	0.3780674475798117	0.022270435126135545	-0.18025221974301495	0.36412795175596074
340	5.762711864406779	0.4005371630920789	0.1949221543851316	1.0686027509280798	0.4001364856052535	0.27840737797675347	1.5499783492552366	0.3826922895780127	0.36250830831153025	1.9559984764266425	0.35189955696941905	0.1986602127637913	2.0150846510242837	0.43146730331929223	0.2684114712768542	2.0372913321308346	0.34582094222566445	0.45242247216657006	2.032587262067411	0.18502995504830103	0.17754002586844778	1.074065618830329	0.19511291486114865	0.2790054096062107	1.5312654376197978	0.20880455508581636	0.4298347633849227	1.9692870122681336	0.184954658483839	0.20761603139643736	2.0262943274468665	0.1336937461114443	0.2408054594839768	1.9925531439789852	0.21208883601618633	0.47706778946114803	2.0416175594041577	0.2849582641466854	0.11047854443649704	0.4068823224969653	0.2892600715032545	0.05759563563520699	0.16716752061693188	0.3031008252871855	0.01624700289735175	0.29261740088705557	0.45664708681807403	0.1605558514115597	0.5303878138897189	0.5452896969256937	0.22693402646699012	0.8024461580873471	0.5816110198369222	0.16444854866222935	1.0830357564224904	0.5632660216823903	0.07906586050105813	1.1837618424792813	0.5750700602361007	0.08553841118757549	1.2176864616325647	0.5596643361658191	0.1866469399439587	1.235835801141353	0.10473281940652877	0.09195943758092727	0.48112446715507956	-0.16968267880658047	0.017837841742383898	0.5087719304252487	-0.01106830940839474	-0.11483088707473825	0.3964949050283704	0.07749795501199074	-0.13421913264904783	0.391902410000923	0.07853028189051027	-0.15057899376827452	0.38112857353800894	0.022847340733473085	-0.1801744060261973	0.37889374347581545
